<?xml version="1.0" encoding="utf-8"?>
<!-- Generator: Adobe Illustrator 23.0.0, SVG Export Plug-In . SVG Version: 6.00 Build 0)  -->
<svg version="1.1" id="Layer_1" xmlns="http://www.w3.org/2000/svg" xmlns:xlink="http://www.w3.org/1999/xlink" x="0px" y="0px"
	 viewBox="0 0 1080 396" style="enable-background:new 0 0 1080 396;" xml:space="preserve">
<style type="text/css">
	.st0{fill:none;stroke:#000000;stroke-width:0.8709;stroke-miterlimit:10;}
	.st1{fill:#333333;}
	.st2{fill:none;stroke:#F7931E;stroke-width:29.8911;stroke-miterlimit:10;}
	.st3{fill:#F15A24;}
</style>
<line class="st0" x1="93.3" y1="338.3" x2="93.7" y2="338.1"/>
<g>
	<g>
		<path class="st1" d="M399.4,162.3c0,4.2,2.2,7.7,6.6,10.2c4.4,2.6,9.7,4.7,15.8,6.5c6.1,1.8,12.2,3.6,18.4,5.4
			c6.2,1.8,11.4,5.2,15.7,10.2s6.4,11.4,6.4,19.2c0,10.2-3.9,18.3-11.8,24.5c-7.9,6.1-17.9,9.2-30.2,9.2c-10.9,0-20.3-2.4-28.1-7.2
			c-7.8-4.8-13.3-11.2-16.6-19.1l16.8-9.7c1.8,5.4,5.2,9.7,10.1,12.8c4.9,3.1,10.9,4.7,17.7,4.7c6.4,0,11.8-1.2,15.9-3.7
			c4.2-2.5,6.3-6.3,6.3-11.5c0-4.3-2.2-7.8-6.5-10.4c-4.3-2.6-9.6-4.8-15.7-6.7c-6.1-1.8-12.2-3.7-18.4-5.5
			c-6.2-1.9-11.4-5.2-15.8-10c-4.3-4.8-6.5-10.9-6.5-18.4c0-9.7,3.8-17.7,11.3-24c7.6-6.3,17-9.4,28.4-9.4c9.1,0,17.3,2.1,24.4,6.2
			c7.1,4.1,12.5,9.8,16.1,17.2l-16.4,9.2c-4-9.6-12.1-14.4-24-14.4c-5.5,0-10.3,1.3-14.1,3.8C401.3,154,399.4,157.6,399.4,162.3z"/>
		<path class="st1" d="M547.4,129.4c15.7,0,29.1,5.7,40.2,17.2c11.1,11.5,16.6,25.4,16.6,41.9c0,16.5-5.5,30.4-16.6,41.9
			c-11.1,11.5-24.5,17.2-40.2,17.2c-18.6,0-32.7-7.4-42.4-22.2v64.2h-19.5V132.3h19.5v19.3C514.7,136.8,528.8,129.4,547.4,129.4z
			 M544.9,228.6c11.2,0,20.7-3.9,28.3-11.6c7.6-7.7,11.5-17.3,11.5-28.6c0-11.4-3.8-20.9-11.5-28.6c-7.6-7.7-17.1-11.6-28.3-11.6
			c-11.4,0-20.9,3.9-28.5,11.6c-7.6,7.7-11.5,17.3-11.5,28.6c0,11.4,3.8,20.9,11.5,28.6C524,224.8,533.5,228.6,544.9,228.6z"/>
		<path class="st1" d="M720.5,132.3h19.5v112.3h-19.5v-19.3c-9.7,14.8-23.9,22.2-42.4,22.2c-15.7,0-29.1-5.7-40.2-17.2
			c-11.1-11.5-16.6-25.4-16.6-41.9c0-16.5,5.5-30.4,16.6-41.9c11.1-11.5,24.5-17.2,40.2-17.2c18.6,0,32.7,7.4,42.4,22.2V132.3z
			 M680.6,228.6c11.4,0,20.9-3.9,28.5-11.6c7.6-7.7,11.5-17.3,11.5-28.6c0-11.4-3.8-20.9-11.5-28.6c-7.6-7.7-17.1-11.6-28.5-11.6
			c-11.2,0-20.7,3.9-28.3,11.6c-7.6,7.7-11.5,17.3-11.5,28.6c0,11.4,3.8,20.9,11.5,28.6C659.9,224.8,669.3,228.6,680.6,228.6z"/>
		<path class="st1" d="M822.5,247.5c-16.9,0-31-5.7-42.2-17c-11.2-11.3-16.8-25.3-16.8-42.1c0-16.8,5.6-30.8,16.8-42.1
			c11.2-11.3,25.3-17,42.2-17c11.1,0,21,2.7,29.9,8c8.8,5.3,15.4,12.5,19.8,21.4l-16.4,9.4c-2.8-6-7.2-10.8-13.1-14.4
			c-5.9-3.6-12.6-5.4-20.1-5.4c-11.2,0-20.6,3.8-28.2,11.5c-7.6,7.6-11.3,17.1-11.3,28.5c0,11.2,3.8,20.7,11.3,28.3
			c7.6,7.6,17,11.5,28.2,11.5c7.5,0,14.2-1.8,20.2-5.3c6-3.5,10.6-8.3,13.7-14.3l16.6,9.7c-4.8,8.8-11.7,15.9-20.7,21.2
			C843.4,244.8,833.4,247.5,822.5,247.5z"/>
		<path class="st1" d="M985.6,230.4c-11.5,11.4-25.5,17.1-42,17.1c-16.5,0-30.4-5.7-41.9-17.1c-11.5-11.4-17.2-25.4-17.2-42
			s5.7-30.6,17.2-42c11.5-11.4,25.4-17.1,41.9-17.1c16.5,0,30.5,5.7,42,17.1c11.5,11.4,17.3,25.4,17.3,42S997.1,219,985.6,230.4z
			 M943.6,228.4c11.2,0,20.7-3.8,28.3-11.5c7.6-7.6,11.5-17.1,11.5-28.5c0-11.4-3.8-20.9-11.5-28.5c-7.6-7.6-17.1-11.5-28.3-11.5
			c-11.1,0-20.4,3.8-28.1,11.5c-7.6,7.6-11.5,17.1-11.5,28.5c0,11.4,3.8,20.9,11.5,28.5C923.1,224.6,932.5,228.4,943.6,228.4z"/>
	</g>
	<g>
		<path class="st2" d="M290,198v71.3c0,19.4-15.7,35.2-35.2,35.2h-71.3"/>
		<path class="st2" d="M77.2,198v-71.3c0-19.4,15.7-35.2,35.2-35.2h71.3"/>
		<path class="st3" d="M138,232.9v-69.9c0-5.9,4.8-10.7,10.7-10.7h69.9c5.9,0,10.7,4.8,10.7,10.7v69.9c0,5.9-4.8,10.7-10.7,10.7
			h-69.9C142.8,243.6,138,238.8,138,232.9z"/>
	</g>
</g>
</svg>
